<?xml version="1.0" encoding="UTF-8"?>
<!DOCTYPE svg PUBLIC "-//W3C//DTD SVG 1.1//EN" "http://www.w3.org/Graphics/SVG/1.1/DTD/svg11.dtd">
<svg xmlns="http://www.w3.org/2000/svg" version="1.1" width="500px" height="500px" style="shape-rendering:geometricPrecision; text-rendering:geometricPrecision; image-rendering:optimizeQuality; fill-rule:evenodd; clip-rule:evenodd" xmlns:xlink="http://www.w3.org/1999/xlink">
<g><path style="opacity:0.955" fill="#fe3130" d="M 223.5,60.5 C 232.25,59.4585 238.75,62.7918 243,70.5C 248.395,60.5911 256.228,58.0911 266.5,63C 274.895,71.344 275.728,80.5106 269,90.5C 262.294,96.8744 255.294,102.874 248,108.5C 246.08,111.339 244.413,114.339 243,117.5C 237.833,108.333 230.667,101.167 221.5,96C 213.057,89.2977 210.223,80.7977 213,70.5C 215.106,65.5573 218.606,62.224 223.5,60.5 Z"/></g>
<g><path style="opacity:0.957" fill="#153447" d="M 154.5,255.5 C 154.5,254.833 154.5,254.167 154.5,253.5C 159.402,241.068 156.069,237.902 144.5,244C 129.126,253.704 115.959,265.871 105,280.5C 104.894,273.916 106.227,267.583 109,261.5C 112.6,254.243 116.6,247.243 121,240.5C 130.1,229.397 139.933,218.897 150.5,209C 172.5,191.333 194.5,173.667 216.5,156C 224.709,147.959 232.709,139.792 240.5,131.5C 238.975,142.239 235.475,152.572 230,162.5C 221.667,173.833 213.333,185.167 205,196.5C 197.728,208.677 196.728,221.344 202,234.5C 209.884,249.266 216.384,264.599 221.5,280.5C 213.173,281.387 204.84,281.22 196.5,280C 191.961,271.084 186.795,262.584 181,254.5C 177.459,261.411 174.625,268.578 172.5,276C 165.452,274.99 158.452,273.49 151.5,271.5C 151.735,265.993 152.735,260.66 154.5,255.5 Z"/></g>
<g><path style="opacity:0.958" fill="#f6cd17" d="M 332.5,254.5 C 332.5,254.833 332.5,255.167 332.5,255.5C 332.5,256.167 332.833,256.5 333.5,256.5C 334.004,260.185 334.67,263.851 335.5,267.5C 335.291,268.994 334.624,270.161 333.5,271C 327.585,273.139 321.585,274.972 315.5,276.5C 312.695,269.418 309.695,262.418 306.5,255.5C 300.64,262.704 295.64,270.537 291.5,279C 282.909,281.039 274.243,281.539 265.5,280.5C 266.897,275.808 268.397,271.141 270,266.5C 276.138,255.222 281.472,243.555 286,231.5C 290.309,218.375 288.643,206.042 281,194.5C 272.281,183.448 263.947,172.114 256,160.5C 251.612,151.504 248.112,142.171 245.5,132.5C 246.002,131.479 246.668,131.312 247.5,132C 256.833,142.667 266.833,152.667 277.5,162C 296.833,177.333 316.167,192.667 335.5,208C 349.528,220.351 361.695,234.184 372,249.5C 377.762,258.786 381.095,268.786 382,279.5C 368.937,264.097 353.77,251.264 336.5,241C 334.866,240.506 333.199,240.34 331.5,240.5C 330.719,245.182 331.052,249.849 332.5,254.5 Z"/></g>
<g><path style="opacity:0.947" fill="#153448" d="M 159.5,146.5 C 177.558,146.275 184.392,154.942 180,172.5C 174.955,180.409 167.788,183.242 158.5,181C 147.832,176.014 144.332,167.847 148,156.5C 150.818,151.839 154.651,148.505 159.5,146.5 Z"/></g>
<g><path style="opacity:0.947" fill="#f5ce16" d="M 318.5,146.5 C 327.666,145.167 334.499,148.5 339,156.5C 342.795,174.369 335.628,182.535 317.5,181C 307.242,176.943 303.409,169.443 306,158.5C 308.208,152.337 312.375,148.337 318.5,146.5 Z"/></g>
<g><path style="opacity:0.917" fill="#fe3131" d="M 154.5,253.5 C 154.5,254.167 154.5,254.833 154.5,255.5C 150.133,256.517 146.133,258.35 142.5,261C 139.833,264 139.833,267 142.5,270C 151.136,275.163 160.47,278.496 170.5,280C 212.405,286.664 254.405,287.664 296.5,283C 307.284,281.637 317.951,279.637 328.5,277C 333.122,275.573 337.455,273.573 341.5,271C 346.833,267.333 346.833,263.667 341.5,260C 338.929,258.546 336.262,257.38 333.5,256.5C 332.833,256.5 332.5,256.167 332.5,255.5C 332.5,255.167 332.5,254.833 332.5,254.5C 344.025,255.836 354.192,260.169 363,267.5C 364.72,272.313 363.22,276.147 358.5,279C 352.081,282.195 345.414,284.695 338.5,286.5C 331.803,287.706 325.137,289.039 318.5,290.5C 307.602,292.548 296.602,293.881 285.5,294.5C 277.825,294.68 270.158,295.014 262.5,295.5C 249.833,296.833 237.167,296.833 224.5,295.5C 216.813,295.54 209.146,295.207 201.5,294.5C 190.819,293.647 180.152,292.647 169.5,291.5C 162.711,289.677 155.711,288.343 148.5,287.5C 140.582,285.241 132.915,282.074 125.5,278C 119.795,272.186 120.462,267.186 127.5,263C 136.143,258.758 145.143,255.591 154.5,253.5 Z"/></g>
<g><path style="opacity:0.936" fill="#f6cd17" d="M 338.5,286.5 C 339.104,316.938 337.604,347.271 334,377.5C 331.238,369.026 329.238,360.36 328,351.5C 324.972,331.133 321.805,310.8 318.5,290.5C 325.137,289.039 331.803,287.706 338.5,286.5 Z"/></g>
<g><path style="opacity:0.93" fill="#153447" d="M 148.5,287.5 C 155.711,288.343 162.711,289.677 169.5,291.5C 164.521,320.488 159.021,349.488 153,378.5C 149.573,348.26 148.073,317.927 148.5,287.5 Z"/></g>
<g><path style="opacity:0.924" fill="#153447" d="M 201.5,294.5 C 209.146,295.207 216.813,295.54 224.5,295.5C 229.646,324.611 231.813,353.945 231,383.5C 225.243,371.975 220.576,359.975 217,347.5C 212.295,329.679 207.129,312.012 201.5,294.5 Z"/></g>
<g><path style="opacity:0.927" fill="#f6cd17" d="M 285.5,294.5 C 278.802,318.286 271.636,341.953 264,365.5C 261.714,371.701 259.047,377.701 256,383.5C 255.321,353.957 257.488,324.623 262.5,295.5C 270.158,295.014 277.825,294.68 285.5,294.5 Z"/></g>
<g><path style="opacity:0.638" fill="#153448" d="M 162.5,382.5 C 164.167,382.5 165.833,382.5 167.5,382.5C 167.5,384.167 167.5,385.833 167.5,387.5C 165.833,387.5 164.167,387.5 162.5,387.5C 162.5,385.833 162.5,384.167 162.5,382.5 Z"/></g>
<g><path style="opacity:0.803" fill="#153448" d="M 319.5,382.5 C 321.167,382.5 322.833,382.5 324.5,382.5C 324.5,389.833 324.5,397.167 324.5,404.5C 322.833,404.5 321.167,404.5 319.5,404.5C 319.5,397.167 319.5,389.833 319.5,382.5 Z"/></g>
<g><path style="opacity:0.638" fill="#153448" d="M 334.5,382.5 C 336.167,382.5 337.833,382.5 339.5,382.5C 339.5,384.167 339.5,385.833 339.5,387.5C 337.833,387.5 336.167,387.5 334.5,387.5C 334.5,385.833 334.5,384.167 334.5,382.5 Z"/></g>
<g><path style="opacity:0.806" fill="#153448" d="M 354.5,382.5 C 357.833,382.5 361.167,382.5 364.5,382.5C 364.5,383.833 364.5,385.167 364.5,386.5C 355.365,387.63 355.365,388.297 364.5,388.5C 364.5,389.833 364.5,391.167 364.5,392.5C 362.167,392.5 359.833,392.5 357.5,392.5C 357.5,396.5 357.5,400.5 357.5,404.5C 355.833,404.5 354.167,404.5 352.5,404.5C 352.5,400.5 352.5,396.5 352.5,392.5C 351.167,392.5 349.833,392.5 348.5,392.5C 348.5,391.167 348.5,389.833 348.5,388.5C 349.833,388.5 351.167,388.5 352.5,388.5C 352.253,386.142 352.919,384.142 354.5,382.5 Z"/></g>
<g><path style="opacity:0.756" fill="#153448" d="M 183.5,383.5 C 184.5,383.5 185.5,383.5 186.5,383.5C 186.5,385.167 186.5,386.833 186.5,388.5C 189.167,388.5 191.833,388.5 194.5,388.5C 194.5,389.833 194.5,391.167 194.5,392.5C 191.833,392.5 189.167,392.5 186.5,392.5C 186.5,395.167 186.5,397.833 186.5,400.5C 189.167,400.5 191.833,400.5 194.5,400.5C 194.773,402.451 194.107,403.951 192.5,405C 182.768,406.427 179.101,402.26 181.5,392.5C 179.833,392.5 178.167,392.5 176.5,392.5C 176.5,391.167 176.5,389.833 176.5,388.5C 178.167,388.5 179.833,388.5 181.5,388.5C 181.365,386.446 182.032,384.779 183.5,383.5 Z"/></g>
<g><path style="opacity:0.772" fill="#153448" d="M 380.5,383.5 C 382.256,384.552 382.923,386.219 382.5,388.5C 385.167,388.5 387.833,388.5 390.5,388.5C 390.5,389.833 390.5,391.167 390.5,392.5C 387.833,392.5 385.167,392.5 382.5,392.5C 380.833,399.5 383.5,402.167 390.5,400.5C 390.773,402.451 390.107,403.951 388.5,405C 378.768,406.427 375.101,402.26 377.5,392.5C 376.167,392.5 374.833,392.5 373.5,392.5C 373.5,391.167 373.5,389.833 373.5,388.5C 374.833,388.5 376.167,388.5 377.5,388.5C 377.5,387.167 377.5,385.833 377.5,384.5C 378.791,384.737 379.791,384.404 380.5,383.5 Z"/></g>
<g><path style="opacity:0.756" fill="#153448" d="M 96.5,385.5 C 98.5,385.5 100.5,385.5 102.5,385.5C 102.334,389.846 102.501,394.179 103,398.5C 106.256,400.429 109.756,400.929 113.5,400C 114.701,399.097 115.535,397.931 116,396.5C 116.499,392.848 116.665,389.182 116.5,385.5C 118.167,385.5 119.833,385.5 121.5,385.5C 121.839,390.93 121.339,396.264 120,401.5C 113.244,406.368 106.244,406.701 99,402.5C 96.7953,397.068 95.962,391.402 96.5,385.5 Z"/></g>
<g><path style="opacity:0.797" fill="#153448" d="M 130.5,388.5 C 132.766,388.141 134.599,388.808 136,390.5C 150.251,384.583 156.085,389.249 153.5,404.5C 151.833,404.5 150.167,404.5 148.5,404.5C 150.555,392.866 146.555,389.866 136.5,395.5C 135.516,398.428 135.183,401.428 135.5,404.5C 133.833,404.5 132.167,404.5 130.5,404.5C 130.5,399.167 130.5,393.833 130.5,388.5 Z"/></g>
<g><path style="opacity:0.806" fill="#153448" d="M 162.5,388.5 C 164.167,388.5 165.833,388.5 167.5,388.5C 167.5,393.833 167.5,399.167 167.5,404.5C 165.833,404.5 164.167,404.5 162.5,404.5C 162.5,399.167 162.5,393.833 162.5,388.5 Z"/></g>
<g><path style="opacity:0.755" fill="#153448" d="M 202.5,389.5 C 204.288,388.378 206.288,388.211 208.5,389C 211.046,392.59 213.213,396.423 215,400.5C 217.254,396.993 219.254,393.327 221,389.5C 222.699,388.594 224.533,388.261 226.5,388.5C 223.733,396.039 220.399,403.372 216.5,410.5C 214.5,411.833 212.5,411.833 210.5,410.5C 211.373,408.587 212.373,406.753 213.5,405C 212.376,404.751 211.376,404.251 210.5,403.5C 208.17,398.537 205.503,393.87 202.5,389.5 Z"/></g>
<g><path style="opacity:0.774" fill="#153448" d="M 255.5,388.5 C 257.167,388.5 258.833,388.5 260.5,388.5C 260.392,392.247 260.892,395.914 262,399.5C 271.422,401.914 275.256,398.247 273.5,388.5C 275.167,388.5 276.833,388.5 278.5,388.5C 278.5,393.833 278.5,399.167 278.5,404.5C 276.409,404.682 274.409,404.348 272.5,403.5C 258.575,408.252 252.908,403.252 255.5,388.5 Z"/></g>
<g><path style="opacity:0.791" fill="#153448" d="M 288.5,388.5 C 294.413,388.775 300.413,388.942 306.5,389C 312.125,393.772 312.458,398.772 307.5,404C 302.872,406.14 298.372,405.974 294,403.5C 293.503,406.146 293.336,408.813 293.5,411.5C 291.833,411.5 290.167,411.5 288.5,411.5C 288.5,403.833 288.5,396.167 288.5,388.5 Z M 296.5,392.5 C 299.32,392.248 301.986,392.748 304.5,394C 305.935,396.267 305.602,398.267 303.5,400C 300.833,400.667 298.167,400.667 295.5,400C 292.709,397.016 293.042,394.516 296.5,392.5 Z"/></g>
<g><path style="opacity:0.806" fill="#153448" d="M 334.5,388.5 C 336.167,388.5 337.833,388.5 339.5,388.5C 339.5,393.833 339.5,399.167 339.5,404.5C 337.833,404.5 336.167,404.5 334.5,404.5C 334.5,399.167 334.5,393.833 334.5,388.5 Z"/></g>
</svg>
